HIERARCHY
ROOT Hips
{
	OFFSET 0.000000 0.000000 0.000000
	CHANNELS 6 Xposition Yposition Zposition Zrotation Yrotation Xrotation 
	JOINT LHipJoint
	{
		OFFSET 0.000000 0.000000 0.000000
		CHANNELS 3 Zrotation Yrotation Xrotation
		JOINT LeftUpLeg
		{
			OFFSET 1.363060 -1.794630 0.839290
			CHANNELS 3 Zrotation Yrotation Xrotation
			JOINT LeftLeg
			{
				OFFSET 2.448110 -6.726130 0.000000
				CHANNELS 3 Zrotation Yrotation Xrotation
				JOINT LeftFoot
				{
					OFFSET 2.562200 -7.039590 0.000000
					CHANNELS 3 Zrotation Yrotation Xrotation
					JOINT LeftToeBase
					{
						OFFSET 0.157640 -0.433110 2.322550
						CHANNELS 3 Zrotation Yrotation Xrotation
						End Site
						{
							OFFSET 0.000000 0.000000 0.000000
						}
					}
				}
			}
		}
	}
	JOINT RHipJoint
	{
		OFFSET 0.000000 0.000000 0.000000
		CHANNELS 3 Zrotation Yrotation Xrotation
		JOINT RightUpLeg
		{
			OFFSET -1.305520 -1.794630 0.839290
			CHANNELS 3 Zrotation Yrotation Xrotation
			JOINT RightLeg
			{
				OFFSET -2.542530 -6.985550 0.000000
				CHANNELS 3 Zrotation Yrotation Xrotation
				JOINT RightFoot
				{
					OFFSET -2.568260 -7.056230 0.000000
					CHANNELS 3 Zrotation Yrotation Xrotation
					JOINT RightToeBase
					{
						OFFSET -0.164730 -0.452590 2.363150
						CHANNELS 3 Zrotation Yrotation Xrotation
						End Site
						{
							OFFSET 0.000000 0.000000 0.000000
						}
					}
				}
			}
		}
	}
}
MOTION
Frames: 21
Frame Time: 0.008333
-3.205508 17.489315 -1.028990 -147.145760 85.458294 -146.801775 -10.177260 1.323486 0.543413 -20.064003 17.438057 -25.859774 -2.431411 -0.903087 10.543851 3.317151 17.329769 -12.535439 -1.293300 0.000000 -13.886701 9.748572 -4.651366 -0.533084 -0.181473 -12.736425 7.303791 0.160452 -2.376283 25.396231 -0.597969 1.855282 24.637155 1.163000 -0.000000 -79.219900
-2.981609 17.528516 -1.101955 -145.465513 85.006934 -145.422430 -10.278460 1.330413 0.586545 -19.913670 17.227609 -24.978223 -2.358179 -0.947021 9.686443 3.281892 17.406099 -11.942419 -1.098700 0.000000 -14.968200 9.710749 -4.629012 -0.579573 -0.089645 -12.530093 7.197730 0.017751 -2.458530 26.989877 -0.773081 0.764477 25.557231 0.671800 -0.000000 -76.934299
-2.761336 17.555822 -1.172926 -144.414094 84.484697 -144.671972 -10.382921 1.331265 0.629427 -19.681812 16.870873 -24.084048 -2.264306 -0.962809 9.130661 3.281071 17.627708 -11.492509 -0.955600 -0.000000 -15.657600 9.667026 -4.579672 -0.671230 0.045761 -12.391465 6.997028 -0.115633 -2.543938 28.806347 -0.959875 -0.831562 25.605267 -0.130000 0.000000 -74.442099
-2.544338 17.570345 -1.242454 -143.785138 83.900689 -144.339557 -10.490955 1.326175 0.673846 -19.380664 16.382284 -23.182897 -2.154239 -0.955310 8.833318 3.307675 17.957797 -11.174252 -0.857100 0.000000 -15.889100 9.617614 -4.508258 -0.807063 0.206907 -12.341640 6.711786 -0.239996 -2.632666 30.780110 -1.161641 -2.853613 24.856476 -1.150900 -0.000000 -71.948600
-2.330209 17.571406 -1.311165 -143.382495 83.266903 -144.230900 -10.604475 1.316000 0.714554 -19.023779 15.811333 -22.287651 -2.035430 -0.927527 8.764235 3.349009 18.329850 -10.979242 -0.800200 0.000000 -15.628000 9.562281 -4.418533 -0.984256 0.374255 -12.393312 6.362418 -0.353978 -2.722401 32.831914 -1.382932 -5.183320 23.424584 -2.263300 0.000000 -69.575400
-2.118086 17.558673 -1.379242 -143.199061 82.601942 -144.325979 -10.716861 1.304114 0.760055 -18.645224 15.145901 -21.397294 -1.912262 -0.886940 8.858264 3.402721 18.732815 -10.887724 -0.778600 0.000000 -14.867500 9.509762 -4.313062 -1.196383 0.497941 -12.571235 5.937636 -0.455767 -2.808713 34.903142 -1.623733 -7.654148 21.421111 -3.315201 0.000000 -67.187500
-1.907162 17.532124 -1.447076 -143.149718 81.924832 -144.533224 -10.825395 1.293778 0.806814 -18.273433 14.437365 -20.541297 -1.794136 -0.836296 9.100891 3.457919 19.103289 -10.904497 -0.795399 -0.000000 -13.627399 9.464202 -4.195488 -1.432838 0.545557 -12.879616 5.436812 -0.542617 -2.886626 36.924563 -1.881133 -10.115243 18.990955 -4.182800 0.000000 -64.690000
-1.697018 17.492004 -1.514847 -143.196669 81.255724 -144.812570 -10.926854 1.286840 0.849515 -17.931319 13.727429 -19.737539 -1.688450 -0.777891 9.482739 3.507483 19.397280 -11.043458 -0.857700 0.000000 -11.938800 9.429961 -4.067718 -1.684531 0.485649 -13.313325 4.865787 -0.612471 -2.952079 38.830144 -2.147836 -12.436895 16.301536 -4.786200 -0.000000 -62.158900
-1.486995 17.438941 -1.582697 -143.299967 80.612693 -145.112881 -11.018100 1.285776 0.883507 -17.641268 13.071126 -19.037372 -1.604281 -0.712107 10.034350 3.544033 19.560615 -11.339147 -0.978699 -0.000000 -9.843400 9.409796 -3.933215 -1.935745 0.303969 -13.856278 4.207599 -0.663752 -3.001375 40.576181 -2.410737 -14.511576 13.509782 -5.092000 0.000000 -59.630800
-1.277037 17.373784 -1.649978 -143.539962 80.021580 -145.519776 -11.089706 1.292159 0.902642 -17.432155 12.480894 -18.421801 -1.544982 -0.641760 10.732888 3.569237 19.602817 -11.798734 -1.161000 -0.000000 -7.484100 9.414097 -3.790465 -2.183550 -0.047918 -14.503018 3.469824 -0.695067 -3.035660 42.140592 -2.648998 -16.222940 10.728770 -5.092400 0.000000 -56.925600
-1.066904 17.297742 -1.716737 -143.843153 79.490424 -145.945422 -11.142348 1.306466 0.899062 -17.308461 12.026940 -17.975914 -1.519119 -0.562623 11.672644 3.576508 19.466392 -12.483940 -1.422700 -0.000000 -4.897500 9.439406 -3.642711 -2.408518 -0.537328 -15.211076 2.623504 -0.706426 -3.053592 43.508777 -2.848270 -17.537537 8.096765 -4.848700 0.000000 -54.373500
-0.856853 17.212106 -1.782126 -144.269649 79.032943 -146.451231 -11.169310 1.328874 0.867338 -17.284682 11.716862 -17.701798 -1.527736 -0.473826 12.872046 3.570324 19.173698 -13.410010 -1.762500 0.000000 -2.229900 9.491157 -3.487977 -2.605476 -1.168848 -15.954347 1.664219 -0.697833 -3.058721 44.688988 -2.992482 -18.410272 5.686612 -4.421400 -0.000000 -52.016000
-0.647252 17.118392 -1.845691 -144.799047 78.649886 -147.010629 -11.171253 1.358257 0.802631 -17.354659 11.571568 -17.638722 -1.571487 -0.370851 14.391530 3.552876 18.730166 -14.602986 177.821700 0.000000 -0.417200 9.566158 -3.326669 -2.764187 -1.898507 -16.686928 0.574682 -0.669962 -3.054325 45.698256 -3.074005 -18.846080 3.555084 -3.889600 0.000001 -50.037000
-0.438668 17.018206 -1.906900 -145.432586 78.337276 -147.620966 -11.149297 1.392894 0.704281 -17.508184 11.577335 -17.799311 -1.646066 -0.249635 16.260591 3.531232 18.176547 -16.061819 177.342000 0.000000 -2.930400 9.661031 -3.158419 -2.878680 -2.678768 -17.362472 -0.656825 -0.624103 -3.045043 46.562409 -3.091363 -18.870519 1.720915 -3.321400 0.000000 -48.555100
-0.231776 16.913274 -1.965385 -146.153367 78.084012 -148.260074 -11.108017 1.430249 0.575951 -17.726160 11.698131 -18.185136 -1.743102 -0.106338 18.487199 3.514660 17.571322 -17.764718 176.814601 0.000001 -5.213800 9.769237 -2.983770 -2.944513 -3.449294 -17.930768 -2.040700 -0.562182 -3.035464 47.310468 -3.049658 -18.532470 0.172632 -2.767400 0.000000 -47.634500
-0.027013 16.805452 -2.020892 -146.969713 77.875203 -148.930396 -11.051160 1.468473 0.427317 -17.994441 11.869277 -18.769213 -1.850049 0.060039 21.029970 3.514661 16.994856 -19.652952 176.257900 -0.000000 -7.112000 9.885645 -2.803266 -2.959762 -4.161545 -18.349999 -3.582213 -0.486543 -3.029743 47.970897 -2.958236 -17.891742 -1.130643 -2.256000 -0.000001 -47.237200
0.174327 16.696520 -2.074188 -147.761897 77.694260 -149.512386 -10.995105 1.500827 0.262825 -18.265398 12.048707 -19.533645 -1.954670 0.250895 23.856356 3.539226 16.503954 -21.697567 175.672300 -0.000000 -8.814900 9.994018 -2.618974 -2.925757 -4.737892 -18.563783 -5.274513 -0.400900 -3.029736 48.562053 -2.831579 -17.033011 -2.234096 -1.804100 0.000000 -47.366500
0.372525 16.588661 -2.124990 -148.617350 77.526210 -150.093412 -10.937060 1.528416 0.097400 -18.549815 12.158442 -20.393679 -2.043368 0.458294 26.825255 3.596566 16.176981 -23.783864 175.070500 0.000000 -10.063600 10.096893 -2.430011 -2.845579 -5.186086 -18.564569 -7.101335 -0.307952 -3.037204 49.097983 -2.681711 -16.018851 -3.208003 -1.407100 -0.000000 -47.822400
0.567229 16.483926 -2.173987 -149.505298 77.357636 -150.652270 -10.884235 1.548533 -0.064255 -18.829649 12.174626 -21.282149 -2.108566 0.674330 29.821980 3.686816 16.038135 -25.847419 174.449400 -0.000000 -10.942700 10.187684 -2.236485 -2.724988 -5.496984 -18.340814 -9.029724 -0.211115 -3.051271 49.576519 -2.522778 -14.928705 -4.105526 -1.062599 0.000000 -48.491700
0.758549 16.384521 -2.221742 -150.440182 77.177705 -151.217983 -10.838285 1.561069 -0.218926 -19.100674 12.092697 -22.118389 -2.147811 0.887936 32.713005 3.805298 16.084449 -27.821704 173.811100 0.000000 -11.484699 10.264764 -2.037716 -2.571248 -5.692482 -17.907618 -11.016038 -0.113208 -3.069980 49.984632 -2.367516 -13.836610 -4.969349 -0.765600 -0.000001 -49.245500
0.947174 16.292536 -2.268892 -151.445083 76.976476 -151.828668 -10.798066 1.567734 -0.364110 -19.364200 11.926526 -22.829592 -2.163915 1.087386 35.373602 3.943523 16.284210 -29.655411 173.164299 -0.000000 -11.732200 10.328147 -1.833295 -2.391671 -5.805021 -17.301700 -13.016913 -0.016036 -3.090472 50.303672 -2.227428 -12.812700 -5.831100 -0.510400 -0.000001 -49.911000
